<svg width="50" height="50" viewBox="0 0 50 50" fill="none" xmlns="http://www.w3.org/2000/svg">
<path d="M25 0C11.1925 0 0 11.1925 0 25C0 38.8075 11.1925 50 25 50C38.8075 50 50 38.8075 50 25C50 11.1925 38.8075 0 25 0ZM33.2954 36.0484C32.9022 36.4395 32.4899 36.8498 32.1552 37.1855C31.8538 37.4879 31.6411 37.8609 31.5333 38.2651C31.381 38.8357 31.2581 39.4123 31.0524 39.9657L29.2994 44.6885C27.9123 44.9909 26.4768 45.1613 25 45.1613V42.4012C25.1704 41.129 24.2298 38.746 22.7188 37.2349C22.1139 36.63 21.7742 35.8095 21.7742 34.9536V31.7268C21.7742 30.5534 21.1421 29.4748 20.1149 28.9073C18.6663 28.1058 16.6058 26.9859 15.1946 26.2752C14.0373 25.6925 12.9667 24.9506 12.004 24.0827L11.9234 24.0101C11.2349 23.3886 10.6237 22.6867 10.1028 21.9194C9.15726 20.5312 7.61694 18.248 6.61593 16.7641C8.67943 12.1774 12.3982 8.49395 17.0192 6.49294L19.4395 7.70363C20.5121 8.23992 21.7742 7.46069 21.7742 6.26109V5.12198C22.5796 4.99194 23.3992 4.90927 24.2329 4.87802L27.0857 7.73085C27.7157 8.36089 27.7157 9.38206 27.0857 10.0121L26.6129 10.4839L25.5706 11.5262C25.256 11.8407 25.256 12.3518 25.5706 12.6663L26.0433 13.1391C26.3579 13.4536 26.3579 13.9647 26.0433 14.2792L25.2369 15.0857C25.0855 15.2368 24.8803 15.3217 24.6663 15.3216H23.7601C23.5504 15.3216 23.3488 15.4032 23.1976 15.5504L22.1976 16.5232C22.075 16.6426 21.9935 16.7978 21.9649 16.9665C21.9363 17.1351 21.962 17.3086 22.0383 17.4617L23.6099 20.6058C23.878 21.1421 23.4879 21.7732 22.8891 21.7732H22.3206C22.126 21.7732 21.9385 21.7026 21.7923 21.5756L20.8569 20.7631C20.6452 20.5795 20.3893 20.4541 20.1145 20.3993C19.8396 20.3445 19.5553 20.3622 19.2893 20.4506L16.1472 21.498C15.9073 21.578 15.6987 21.7314 15.5508 21.9366C15.403 22.1418 15.3235 22.3883 15.3236 22.6411C15.3236 23.0978 15.5817 23.5141 15.9899 23.7188L17.1069 24.2772C18.0554 24.752 19.1018 24.999 20.1623 24.999C21.2228 24.999 22.4395 27.75 23.3881 28.2248H30.1169C30.9728 28.2248 31.7923 28.5645 32.3982 29.1694L33.7782 30.5494C34.3548 31.1261 34.6786 31.9083 34.6784 32.7238C34.6782 33.3417 34.5559 33.9535 34.3186 34.5241C34.0812 35.0946 33.7335 35.6126 33.2954 36.0484ZM42.0363 26.8397C41.4526 26.6935 40.9436 26.3357 40.6099 25.8347L38.7974 23.1159C38.5322 22.7187 38.3906 22.2518 38.3906 21.7742C38.3906 21.2966 38.5322 20.8297 38.7974 20.4325L40.7722 17.4708C41.006 17.121 41.3266 16.8367 41.7036 16.6492L43.0121 15.995C44.375 18.7087 45.1613 21.7611 45.1613 25C45.1613 25.874 45.0867 26.7298 44.9778 27.5746L42.0363 26.8397Z" fill="white"/>
</svg>
